<svg xmlns="http://www.w3.org/2000/svg" viewBox="0 0 64 64" role="img" aria-label="FS logo">
  <defs>
    <linearGradient id="bg" x1="0%" y1="0%" x2="100%" y2="100%">
      <stop offset="0%" stop-color="#111827" />
      <stop offset="100%" stop-color="#2563eb" />
    </linearGradient>
  </defs>
  <rect width="64" height="64" rx="16" fill="url(#bg)" />
  <circle cx="32" cy="32" r="25" fill="none" stroke="rgba(255,255,255,0.18)" stroke-width="2" />
  <path d="M20 18h24v6H28v7h12v6H28v13h-8V18Z" fill="#ffffff" />
  <path d="M46 18h-8v28h8c7 0 10-3.5 10-8.5 0-3.8-2.2-6.3-5.7-7.2 2.9-1.2 4.4-3.4 4.4-6.2 0-4.8-3.1-6.1-8.7-6.1Zm-8 6h6.5c2.7 0 4.1 1 4.1 3.1 0 2.2-1.5 3.4-4.5 3.4H38v-6.5Zm0 12.4h7c3 0 4.6 1.1 4.6 3.6 0 2.4-1.7 3.7-4.8 3.7H38v-7.3Z" fill="#fbbf24" opacity="0.92" />
</svg>
